<svg fill="#FFFFFF" xmlns="http://www.w3.org/2000/svg"  viewBox="0 0 512 512" width="64px" height="64px"><path d="M 315.26562 23.300781 A 62.606 62.606 0 0 0 292.11523 114.32227 A 109.775 109.775 0 0 1 311.91211 176.875 L 311.9668 302 L 326.80664 302 L 326.75977 194.16406 A 16.033 16.033 0 0 1 343.21289 178 A 16.418 16.418 0 0 1 359.66211 194.40039 L 359.71094 302 L 374.04883 302 L 374 177.03711 A 107.49 107.49 0 0 1 393.57227 115.08984 A 61.582 61.582 0 0 0 404.95703 76.132812 C 403.94803 53.864812 390.42313 33.48225 370.57812 23.40625 L 370.58984 76.306641 A 4.995 4.995 0 0 1 365.58984 81.300781 L 320.27734 81.292969 A 5 5 0 0 1 315.27734 76.292969 L 315.26562 23.300781 z M 342.59961 187.99219 A 6.16 6.16 0 0 0 338.65625 189.61328 A 6.323 6.323 0 0 0 336.76172 194.14453 L 336.80664 302 L 349.71484 302 L 349.66797 194.40039 A 6.407 6.407 0 0 0 343.21484 188 A 6.16 6.16 0 0 0 342.59961 187.99219 z M 256.80859 252 C 238.16859 252 231.19703 261.6258 227.20703 270.2168 A 66.746 66.746 0 0 1 168.36133 308 L 162 308 L 162 455 L 176.30078 455 A 135.828 135.828 0 0 1 248.0625 475.69336 C 267.5475 487.82636 290.62316 489 314.53516 489 L 383.08594 489 A 18.5 18.5 0 0 0 383.08594 452 L 346.04688 452 A 5 5 0 0 1 346.04688 442 L 393.81836 442 A 18.5 18.5 0 0 0 393.81836 405 L 360.64062 405 A 5.0000462 5.0000462 0 0 1 360.68359 395 L 393.08398 395 A 19.5 19.5 0 0 0 393.08398 356 L 360.68359 356 A 5 5 0 0 1 360.68359 346 L 395.33594 346 A 17 17 0 0 0 395.33594 312 L 310.33594 312 A 23.354 23.354 0 0 1 287.31055 291.0625 A 5.148 5.148 0 0 1 291.74023 285.39648 A 5.014 5.014 0 0 1 297.25195 289.8418 A 13.753 13.753 0 0 0 301.9668 298.8418 L 301.94336 252 L 256.80859 252 z M 162 308 L 162 307.76367 C 162 307.73167 161.99138 308 161.98438 308 L 162 308 z M 384.03125 252 L 384.04688 289.21484 C 405.21387 288.04684 413.77895 270 414.87695 252 L 384.03125 252 z M 124.5 280.33008 A 27.521 27.521 0 0 0 97 307.76367 L 97 459.15039 A 27.5 27.5 0 0 0 152 459.15039 L 152 307.76367 A 27.521 27.521 0 0 0 124.5 280.33008 z M 129.14648 302.98242 A 5 5 0 0 1 134 307.98047 L 134 314.05469 A 5 5 0 0 1 124 314.05469 L 124 307.98047 A 5 5 0 0 1 129.14648 302.98242 z M 129.14648 332.29102 A 5 5 0 0 1 134 337.28906 L 134 426.52539 A 5 5 0 0 1 124 426.52539 L 124 337.28906 A 5 5 0 0 1 129.14648 332.29102 z"/></svg>