<svg fill="#FFFFFF" xmlns="http://www.w3.org/2000/svg"  viewBox="0 0 512 512" width="64px" height="64px"><path d="M 320.08594 11.003906 A 6 6 0 0 0 318.22852 11.357422 A 73.421 73.421 0 0 0 283.07031 121.75781 A 98.435 98.435 0 0 1 300.91211 177.92578 L 300.93945 242 L 256.80859 242 C 237.93359 242 224.98747 249.90937 217.23047 266.60938 A 54.587 54.587 0 0 1 168.36133 298 L 161.02148 298 C 156.05548 282 142.2213 271.32377 125.5293 270.88477 A 38.334 38.334 0 0 0 86 309.06055 L 86 459.65234 C 86 480.63834 102.4927 498.14627 123.4707 498.69727 A 38.019 38.019 0 0 0 162.36914 466.99609 L 176.30078 466.99609 A 124.833 124.833 0 0 1 242.24805 486.02734 C 264.20005 499.69934 288.96616 501 314.53516 501 L 383.08594 501 A 29.508 29.508 0 0 0 404.96484 451.78516 A 29.63 29.63 0 0 0 411.36523 400.57617 A 30.3 30.3 0 0 0 411.78516 352.64062 A 27.985 27.985 0 0 0 395.33594 302 L 385 302 L 385 300.88477 C 410 299.28477 426 279.00738 426 248.48438 L 426 247.58594 C 426 244.26994 423.312 242 420 242 L 385.02734 242 L 385 178.07617 A 95.836 95.836 0 0 1 402.52148 122.70898 A 72.365 72.365 0 0 0 415.94336 76.900391 C 414.62636 47.822391 395.21377 21.5155 367.63477 11.4375 A 6 6 0 0 0 359.57422 17.074219 L 359.58789 71.59375 L 326.27539 71.585938 L 326.26367 17 A 6 6 0 0 0 320.08594 11.003906 z M 314.26562 26.28125 L 314.27734 77.681641 A 6.088 6.088 0 0 0 320.27734 83.78125 L 365.58789 84 A 6.213 6.213 0 0 0 369.83008 82.037109 A 6.481 6.481 0 0 0 371.58789 77.589844 L 371.57617 26.339844 C 390.31217 36.494844 402.98708 56.075453 403.95508 77.439453 A 60.478 60.478 0 0 1 392.75586 115.73047 A 107.945 107.945 0 0 0 373 178.08008 L 373.05469 302 L 360.6875 302 L 360.6543 195.29102 A 17.319 17.319 0 0 0 343.21875 178 A 17.155 17.155 0 0 0 325.76562 195.20703 L 325.80859 302 L 312.9668 302 L 312.91211 177.92383 A 110.354 110.354 0 0 0 292.9375 114.93359 A 60.6 60.6 0 0 1 282.21094 80.253906 A 61.324 61.324 0 0 1 314.26562 26.28125 z M 343.00586 189.63867 A 5.57 5.57 0 0 1 348.56445 195.11719 L 348.66406 302.00586 L 337.80859 302.00586 L 337.75977 195.12305 A 5.373 5.373 0 0 1 339.25977 191.23828 A 6.044 6.044 0 0 1 343.00586 189.63867 z M 256.80859 254 L 300.94531 254 L 300.96484 297.49023 A 12.4 12.4 0 0 1 298.24414 290.99023 A 6.0016774 6.0016774 0 0 0 286.31445 292.31641 A 24.222 24.222 0 0 0 310.33398 314 L 395.33398 314 A 15.992 15.992 0 0 1 411.3457 330 L 411.34766 330 A 15.992 15.992 0 0 1 395.33789 346 L 360.68359 346 A 6 6 0 0 0 360.68359 358 L 393.08398 358 A 18.5 18.5 0 0 1 393.08398 395 L 360.68359 395 A 6.0000385 6.0000385 0 0 0 360.64062 407 L 393.81836 407 A 17.5 17.5 0 0 1 393.81836 442 L 346.04688 442 A 6 6 0 0 0 346.04688 454 L 383.08594 454 A 17.5 17.5 0 0 1 383.08594 489 L 314.53516 489 C 290.77316 489 267.85189 487.83775 248.58789 475.84375 A 136.822 136.822 0 0 0 176.30078 455 L 163 455 L 163 384 A 6 6 0 0 0 151 384 L 151 459.81055 C 151 474.19255 139.7773 486.38128 125.4043 486.86328 A 26.521 26.521 0 0 1 98 460.44727 L 98 309.69922 C 98 295.31822 109.22161 283.12948 123.59961 282.64648 A 26.52 26.52 0 0 1 151 309.06055 L 151 342 A 6 6 0 0 0 163 342 L 163 310 L 168.36133 310 A 67.4 67.4 0 0 0 228.11523 271.78516 C 231.98023 263.46316 238.73459 254 256.80859 254 z M 385.0332 254 L 413.80078 254 C 412.48978 270.131 404.37783 287.14961 385.04883 288.84961 L 385.0332 254 z M 129 303.27734 A 6 6 0 0 0 123 309.27734 L 123 315.35156 A 6 6 0 0 0 135 315.35156 L 135 309.27734 A 6 6 0 0 0 129 303.27734 z M 129 332.58789 A 6 6 0 0 0 123 338.58789 L 123 427.82227 A 6 6 0 0 0 135 427.82227 L 135 338.58789 A 6 6 0 0 0 129 332.58789 z"/></svg>