<svg fill="#FFFFFF" xmlns="http://www.w3.org/2000/svg"  viewBox="0 0 50 50" width="50px" height="50px"><path d="M 47.390625 10.242188 L 46.882813 8.703125 L 38.757813 16.824219 L 34.769531 15.230469 L 33.175781 11.238281 L 41.296875 3.113281 L 39.757813 2.605469 C 38.53125 2.203125 37.269531 2 36 2 C 29.382813 2 24 7.382813 24 14 C 24 15.480469 24.269531 16.925781 24.808594 18.308594 L 3.425781 39.6875 C 2.507813 40.605469 2 41.828125 2 43.132813 C 2 44.433594 2.507813 45.652344 3.425781 46.574219 C 4.375 47.523438 5.621094 47.996094 6.867188 47.996094 C 8.117188 47.996094 9.363281 47.523438 10.3125 46.574219 L 31.691406 25.195313 C 33.074219 25.730469 34.519531 26 36 26 C 42.617188 26 48 20.617188 48 14 C 48 12.730469 47.796875 11.46875 47.390625 10.242188 Z"/></svg>