<?xml version="1.0" standalone="no"?>
<!DOCTYPE svg PUBLIC "-//W3C//DTD SVG 20010904//EN"
 "http://www.w3.org/TR/2001/REC-SVG-20010904/DTD/svg10.dtd">
<svg version="1.0" xmlns="http://www.w3.org/2000/svg"
 width="363.000000pt" height="363.000000pt" viewBox="0 0 363.000000 363.000000"
 preserveAspectRatio="xMidYMid meet">
<metadata>
Created by potrace 1.14, written by Peter Selinger 2001-2017
</metadata>
<g transform="translate(0.000000,363.000000) scale(0.100000,-0.100000)"
fill="#000000" stroke="none">
<path d="M1709 3526 c-2 -2 -52 -6 -110 -10 -90 -5 -167 -16 -444 -63 -116
-19 -466 -107 -602 -151 l-83 -26 0 -333 0 -333 -232 -2 -232 -3 -1 -380 c0
-209 1 -388 3 -397 4 -16 22 -18 201 -17 108 0 214 0 237 0 l40 -1 0 -287 c-1
-159 1 -301 3 -316 3 -24 16 -34 103 -77 473 -236 905 -596 1140 -952 42 -64
54 -76 68 -68 10 6 21 5 27 -1 6 -6 33 26 76 90 231 341 653 693 1103 920 67
33 124 66 126 73 2 7 4 149 4 316 l-1 302 65 1 c36 0 145 0 243 -1 97 0 177 3
178 7 1 10 1 764 0 781 -1 9 -53 12 -226 12 -207 0 -225 1 -226 18 0 9 -1 159
-1 333 l0 316 -102 31 c-170 53 -231 70 -384 106 -154 36 -395 81 -497 91 -33
4 -71 9 -85 11 -30 5 -386 14 -391 10z"/>
</g>
</svg>
