<svg xmlns="http://www.w3.org/2000/svg" xmlns:xlink="http://www.w3.org/1999/xlink" viewBox="0,0,256,256" width="32px" height="32px" fill-rule="nonzero"><g fill="#000000" fill-rule="nonzero" stroke="none" stroke-width="1" stroke-linecap="butt" stroke-linejoin="miter" stroke-miterlimit="10" stroke-dasharray="" stroke-dashoffset="0" font-family="none" font-weight="none" font-size="none" text-anchor="none" style="mix-blend-mode: normal"><g transform="scale(8,8)"><path d="M16,3c-4.95703,0 -9,4.04297 -9,9c0,1.40625 0.57031,3.01953 1.34375,4.78125c0.77344,1.76172 1.76953,3.63281 2.78125,5.375c2.02344,3.48828 4.0625,6.40625 4.0625,6.40625l0.8125,1.1875l0.8125,-1.1875c0,0 2.03906,-2.91797 4.0625,-6.40625c1.01172,-1.74219 2.00781,-3.61328 2.78125,-5.375c0.77344,-1.76172 1.34375,-3.375 1.34375,-4.78125c0,-4.95703 -4.04297,-9 -9,-9zM16,5c3.87891,0 7,3.12109 7,7c0,0.80078 -0.42969,2.31641 -1.15625,3.96875c-0.72656,1.65234 -1.73047,3.48438 -2.71875,5.1875c-1.57031,2.71094 -2.54687,4.14453 -3.125,5c-0.57812,-0.85547 -1.55469,-2.28906 -3.125,-5c-0.98828,-1.70312 -1.99219,-3.53516 -2.71875,-5.1875c-0.72656,-1.65234 -1.15625,-3.16797 -1.15625,-3.96875c0,-3.87891 3.12109,-7 7,-7zM16,10c-1.10547,0 -2,0.89453 -2,2c0,1.10547 0.89453,2 2,2c1.10547,0 2,-0.89453 2,-2c0,-1.10547 -0.89453,-2 -2,-2z"></path></g></g></svg>